# xmcd
#
# Track frame offsets:
#	150
#	22187
#	37967
#	56277
#	76227
#	97260
#	112967
#	131355
#	148005
#	165532
#	182302
#	202640
#	221987
#	237915
#	253987
#	274667
#
# Disc length: 3895
#
# Revision: 4
# Processed by: cddbd v1.5.1PL0 Copyright (c) Steve Scherf et al.
# Submitted via: EasyCDDAExtractor 6.2.0.3
# Normalized: r3:DSETVAR1
#
DISCID=da0f3510
DTITLE=Various Artist - All Time Greatest R&B Songs II Disk 1
DYEAR=1900
DGENRE=Blues
TTITLE0=Brandy - I Wanna Be Down
TTITLE1=Destiny's Child - No, No, No (Part 1)
TTITLE2=Montell Jordan - Something For Da Honeyz
TTITLE3=Keith Sweat - Nobody
TTITLE4=Allure - All Cried Out (Dance Version)
TTITLE5=Robyn - Show Me Love
TTITLE6=LL Cool J - Around The Way Girl
TTITLE7=Jamiroquai - Alright
TTITLE8=Salt 'N' Pepper - Whatta Man
TTITLE9=Mary J. Blige - I'm Goin' Down
TTITLE10=Changing Faces - Stroke You Up
TTITLE11=New Edition - Hit Me Off
TTITLE12=X-Scape - Feels So Good
TTITLE13=Kool and The Gang - Fresh
TTITLE14=Bell Biv Devoe - Gangsta
TTITLE15=Deni Hines - Joy
EXTD=
EXTT0=
EXTT1=
EXTT2=
EXTT3=
EXTT4=
EXTT5=
EXTT6=
EXTT7=
EXTT8=
EXTT9=
EXTT10=
EXTT11=
EXTT12=
EXTT13=
EXTT14=
EXTT15=
PLAYORDER=
